<svg width="120" height="92" fill="none" xmlns="http://www.w3.org/2000/svg"><path d="M14.84 91.872c-4.544 0-8.064-1.248-10.56-3.744C1.848 85.696.632 82.432.632 78.336c0-3.456 1.056-6.464 3.168-9.024 2.112-2.56 4.96-3.84 8.544-3.84 2.752 0 4.992.416 6.72 1.248 1.792.768 2.688 2.496 2.688 5.184 0 1.152-.192 2.432-.576 3.84-1.152-.96-2.144-1.632-2.976-2.016-.832-.32-1.76-.48-2.784-.48-2.112 0-3.776.704-4.992 2.112-1.152 1.408-1.728 3.072-1.728 4.992 0 2.24.672 3.904 2.016 4.992 1.344 1.152 2.848 1.728 4.512 1.728 1.536 0 2.816-.32 3.84-.96 1.088-.576 2.048-1.728 2.88-3.456.832-1.664 1.632-4.128 2.4-7.392L39.416 6.72c-4.288 1.728-7.616 4.384-9.984 7.968-2.368 3.584-3.552 7.936-3.552 13.056 0 2.368.224 4.032.672 4.992.448.896.672 1.408.672 1.536-3.456 0-6.048-.704-7.776-2.112-1.664-1.472-2.496-3.872-2.496-7.2 0-4.096 1.664-8.064 4.992-11.904 3.392-3.904 7.712-7.04 12.96-9.408C40.152 1.216 45.4 0 50.648 0h3.84l-14.4 68.16c-1.664 7.872-4.416 13.792-8.256 17.76-3.84 3.968-9.504 5.952-16.992 5.952zM79.173 8.448H78.02c-5.696 0-10.144 1.44-13.344 4.32-3.136 2.816-4.704 7.84-4.704 15.072 0 2.368.224 4.032.672 4.992.448.896.672 1.408.672 1.536-3.456 0-6.048-.704-7.776-2.112-1.664-1.472-2.496-3.872-2.496-7.2 0-4.544 1.12-8.672 3.36-12.384 2.24-3.776 5.792-6.816 10.656-9.12C69.989 1.248 76.229.096 83.78.096c4.224 0 8.768.384 13.632 1.152 4.096.704 7.744 1.056 10.944 1.056 4.096 0 7.808-.672 11.136-2.016-.128 4.16-1.184 7.232-3.168 9.216-1.984 1.984-4.928 2.976-8.832 2.976-2.048 0-4.096-.16-6.144-.48-2.048-.32-4.96-.864-8.736-1.632L79.365 72H65.54L79.173 8.448z" fill="#4070F4"/></svg>